<svg width="1812" height="430" viewBox="0 0 1812 430" fill="none" xmlns="http://www.w3.org/2000/svg">
<g filter="url(#filter0_d_3_40)">
<path d="M166.276 215.56H169.106L174.766 408H254.006L234.196 11.8H146.466L129.486 181.6H126.656L109.676 11.8H21.9456L2.13559 408H81.3756L87.0356 215.56H89.8656L101.186 340.08H154.956L166.276 215.56ZM350.137 85.38H406.737V11.8H276.557V408H406.737V334.42H350.137V249.52H389.757V175.94H350.137V85.38ZM417.792 85.38H457.412V408H530.992V85.38H570.612V11.8H417.792V85.38ZM655.534 408L658.364 334.42H678.174L681.004 408H760.244L720.624 11.8H615.914L576.294 408H655.534ZM669.684 130.66L675.344 260.84H661.194L666.854 130.66H669.684ZM754.96 85.38H794.58V408H868.16V85.38H907.78V11.8H754.96V85.38ZM1071.94 252.35V249.52C1075.34 247.256 1078.73 243.294 1082.13 238.766C1084.39 234.804 1086.09 229.144 1088.36 222.352C1090.62 215.56 1091.75 206.504 1091.75 195.75V93.87C1091.75 81.984 1089.49 71.23 1085.53 61.042C1081.56 50.854 1075.9 42.364 1068.55 35.006C1061.19 27.648 1052.7 21.988 1042.51 18.026C1032.32 14.064 1021.57 11.8 1009.68 11.8H930.442V408H1004.02V277.82H1009.68L1021 408H1103.07L1071.94 252.35ZM1009.68 85.38C1015.34 85.38 1018.17 88.21 1018.17 93.304V195.75C1018.17 201.41 1015.34 204.24 1009.68 204.24H1004.02V85.38H1009.68ZM1196.37 85.38H1252.97V11.8H1122.79V408H1252.97V334.42H1196.37V249.52H1235.99V175.94H1196.37V85.38ZM1368.74 408H1436.66V11.8H1368.74V158.96H1365.91L1343.27 11.8H1275.35V408H1343.27V260.84H1346.1L1368.74 408ZM1470.46 408H1549.7C1561.59 408 1572.34 406.302 1582.53 402.34C1592.72 398.378 1601.21 392.718 1608.57 385.36C1615.93 378.002 1621.59 369.512 1625.55 359.324C1629.51 349.136 1631.77 338.382 1631.77 325.93V93.87C1631.77 81.984 1629.51 71.23 1625.55 61.042C1621.59 50.854 1615.93 42.364 1608.57 35.006C1601.21 27.648 1592.72 21.988 1582.53 18.026C1572.34 14.064 1561.59 11.8 1549.7 11.8H1470.46V408ZM1558.19 325.93C1558.19 331.59 1555.36 334.42 1549.7 334.42H1544.04V85.38H1549.7C1555.36 85.38 1558.19 88.21 1558.19 93.87V325.93ZM1651.49 337.25C1651.49 349.702 1653.19 360.456 1657.15 370.644C1661.12 380.832 1666.78 389.322 1673.57 396.68C1680.36 404.038 1688.85 409.698 1697.91 413.66C1706.96 417.622 1717.15 419.32 1727.9 419.32C1739.79 419.32 1750.54 417.622 1760.73 413.66C1770.92 409.698 1779.41 404.038 1786.77 396.68C1794.13 389.322 1799.79 380.832 1803.75 370.644C1807.71 360.456 1809.97 349.702 1809.97 337.25C1809.97 318.006 1807.71 301.026 1803.75 285.178C1799.22 269.896 1794.13 255.746 1787.9 242.162C1781.11 229.144 1774.32 216.692 1767.52 204.806C1760.17 192.92 1753.37 180.468 1747.15 168.016C1740.36 155.564 1735.26 142.546 1731.3 128.962C1726.77 115.378 1725.07 99.53 1725.07 82.55C1725.07 76.89 1727.9 74.06 1733.56 74.06C1739.22 74.06 1742.05 76.89 1742.05 82.55V136.32H1809.97V82.55C1809.97 70.664 1807.71 59.91 1803.75 49.722C1799.79 39.534 1794.13 31.044 1787.33 23.686C1780.54 16.328 1772.05 10.668 1763 6.70597C1753.94 2.74399 1743.75 0.479984 1733.56 0.479984C1721.11 0.479984 1710.36 2.74399 1700.17 6.70597C1689.98 10.668 1681.49 16.328 1674.13 23.686C1666.78 31.044 1661.12 39.534 1657.15 49.722C1653.19 59.91 1651.49 70.664 1651.49 82.55C1651.49 101.794 1653.19 119.34 1657.72 134.622C1661.68 150.47 1666.78 164.62 1673.57 177.638C1679.79 191.222 1686.59 203.674 1693.94 215.56C1700.74 227.446 1707.53 239.332 1714.32 251.784C1720.55 264.236 1725.64 277.82 1730.17 291.404C1734.13 304.988 1736.39 320.27 1736.39 337.25C1736.39 342.91 1733.56 345.74 1727.9 345.74C1722.24 345.74 1719.41 342.91 1719.41 337.25V266.5H1651.49V337.25Z" fill="white"/>
</g>
<defs>
<filter id="filter0_d_3_40" x="0.135586" y="0.47998" width="1811.84" height="428.84" filterUnits="userSpaceOnUse" color-interpolation-filters="sRGB">
<feFlood flood-opacity="0" result="BackgroundImageFix"/>
<feColorMatrix in="SourceAlpha" type="matrix" values="0 0 0 0 0 0 0 0 0 0 0 0 0 0 0 0 0 0 127 0" result="hardAlpha"/>
<feOffset dy="8"/>
<feGaussianBlur stdDeviation="1"/>
<feComposite in2="hardAlpha" operator="out"/>
<feColorMatrix type="matrix" values="0 0 0 0 0 0 0 0 0 0 0 0 0 0 0 0 0 0 0.25 0"/>
<feBlend mode="normal" in2="BackgroundImageFix" result="effect1_dropShadow_3_40"/>
<feBlend mode="normal" in="SourceGraphic" in2="effect1_dropShadow_3_40" result="shape"/>
</filter>
</defs>
</svg>
