<svg width="1817" height="80" viewBox="0 0 1817 80" fill="none" xmlns="http://www.w3.org/2000/svg">
<path fill-rule="evenodd" clip-rule="evenodd" d="M114.405 79.9997L105.895 2.90689e-06H61.6934L58.341 77.5378L56.9535 77.617L44.7823 2.90689e-06H0.97295L1.48173 79.9997H114.406H114.405ZM163.846 24.1338L191.58 22.5649L190.311 -0.00146339H126.32L130.819 79.9983H186.463L185.763 67.5391L166.349 68.6374L163.846 24.1323V24.1338ZM197.127 22.2511L216.541 21.1528L219.85 79.9983H256.019L252.595 19.1132L272.009 18.0149L270.996 -0.00292969H195.874L197.126 22.2496L197.127 22.2511ZM359.515 79.9983L346.969 -0.00146339H291.325L287.866 79.9983H320.953L320.407 37.6017L321.795 37.5225L326.035 79.9983H359.513H359.515ZM362.146 12.9181L381.561 11.8198L385.394 79.9983H421.563L417.615 9.7802L437.029 8.68195L436.541 -0.00292969H361.42L362.146 12.9166V12.9181ZM526.221 79.9983C526.381 79.7475 526.536 79.4924 526.689 79.2314C527.683 77.1287 528.593 74.3339 529.417 70.8456C530.242 67.3573 530.508 63.0171 530.215 57.8249L527.4 7.75672C527.248 5.05286 526.9 2.46778 526.357 -0.00146339H447.67L452.169 79.9983H526.221ZM486.951 5.85933C489.725 5.70243 491.184 6.92239 491.33 9.51774L494.161 59.8645C494.317 62.6461 493.009 64.1153 490.235 64.2722L487.462 64.4291L484.177 6.01622L486.95 5.85933H486.951ZM578.475 0.683297L590.586 -0.00146339H542.268L546.767 79.9983H602.411L600.392 44.0901L580.978 45.1883L578.477 0.683297H578.475ZM701.181 79.9983L696.682 -0.00146339H663.296L665.098 32.0591L663.711 32.1368L656.915 -0.00292969H617.388L621.887 79.9968H701.181V79.9983ZM797.168 79.9983L792.669 -0.00146339H756.5L760.998 79.9983H797.166H797.168ZM713.375 -0.00146339L717.874 79.9983H754.043L749.544 -0.00146339H713.375ZM881.178 79.9983C878.855 73.2885 876.098 67.064 872.909 61.325C869.4 55.0125 865.726 49.0344 861.884 43.3921C858.042 37.7498 854.378 31.958 850.891 26.0165C847.404 20.0751 844.452 13.7773 842.039 7.12328C841.213 4.84758 840.501 2.47218 839.903 -0.00146339H803.161C803.912 4.27719 804.908 8.30511 806.149 12.0838C808.611 19.5721 811.595 26.4725 815.104 32.7849C818.611 39.0974 822.287 45.0754 826.129 50.7178C829.97 56.3601 833.635 62.1534 837.122 68.0948C839.365 71.916 841.385 75.8838 843.185 79.9997H881.181L881.178 79.9983ZM846.923 -0.00146339L847.518 10.5808L880.8 8.69808L880.31 -0.00146339H846.922H846.923ZM840.293 79.9983L840.023 75.1844L806.741 77.0671L806.906 79.9997H840.293V79.9983ZM1007.79 40.5812L1009.18 40.5035L1012.57 79.9983H1050.49L1041.98 -0.00146339H989.906L988.828 24.9124L987.441 24.9916L983.521 2.90689e-06H931.793L932.302 79.9997H969.965L968.965 42.7792L970.353 42.7015L975.858 80.0012H1006.44L1007.79 40.5842V40.5812ZM1059.77 -0.00146339L1064.26 79.9983H1100.43L1098.87 52.1723L1118.28 51.0741L1116.25 14.9137L1096.83 16.012L1095.93 -0.00292969H1059.77V-0.00146339ZM1148.8 -0.00146339L1153.3 79.9983H1189.46L1184.97 -0.00146339H1148.8ZM1298.25 79.9983L1285.71 -0.00146339H1253.79L1258.65 48.7163L1251.72 49.1092L1251.09 -0.00146339H1219.54L1216.08 79.9983H1298.25ZM1314.34 -0.00146339L1318.84 79.9983H1355.01L1350.51 -0.00146339H1314.34ZM1452.56 33.565L1452.48 32.1735C1454.26 30.7717 1455.82 28.9154 1457.18 26.606C1458.17 24.5033 1459.08 21.7085 1459.9 18.2202C1460.73 14.7319 1460.99 10.3917 1460.7 5.19949L1460.41 -0.00292969H1424.24L1424.65 7.23765C1424.8 10.0192 1423.5 11.4884 1420.72 11.6453L1417.95 11.8022L1417.28 -0.00292969H1381.12L1385.61 79.9968H1421.78L1419.98 47.9626L1422.76 47.8057L1427.38 79.9968H1464.57L1452.56 33.5635V33.565ZM1475.71 -0.00146339L1480.21 79.9983H1544.2L1543.58 68.8778L1515.84 70.4468L1513.5 28.7233L1532.91 27.625L1531.36 -0.00146339H1475.71ZM1634.62 79.9983L1630.13 -0.00146339H1550.83L1555.33 79.9983H1588.72L1585.92 30.2087L1587.3 30.1295L1597.85 79.9983H1634.62ZM1722.59 79.9983C1724.51 77.1522 1726.04 74.0304 1727.16 70.633C1728.83 65.6095 1729.49 60.1299 1729.16 54.1958L1726.11 -0.00146339H1689.95L1693.11 56.2354C1693.26 59.017 1691.96 60.4862 1689.18 60.6431L1686.41 60.8L1682.99 -0.00146339H1646.82L1651.32 79.9983H1722.6H1722.59ZM1739.18 59.2105C1739.51 65.1447 1740.79 70.5142 1743.01 75.3178C1743.77 76.9586 1744.61 78.5188 1745.53 79.9983H1810.68C1812.41 77.3208 1813.8 74.4058 1814.84 71.2547C1816.51 66.2312 1817.17 60.7516 1816.84 54.8175C1816.31 45.3599 1814.81 36.8876 1812.35 29.3993C1809.89 21.9109 1806.9 15.012 1803.39 8.69954C1801.74 5.72443 1800.05 2.82409 1798.32 -0.00292969H1757.9C1761.27 5.03527 1764.51 10.1922 1767.61 15.4665C1771.09 21.4079 1774.04 27.7057 1776.46 34.3597C1778.87 41.0123 1780.31 48.5124 1780.78 56.8571C1780.94 59.6387 1779.63 61.1079 1776.86 61.2648C1774.08 61.4217 1772.62 60.1094 1772.46 57.3278L1770.51 22.559L1737.23 24.4417L1739.18 59.2105Z" fill="#98679E" fill-opacity="0.2"/>
</svg>
